<svg xmlns="http://www.w3.org/2000/svg" width="47.999" height="48" viewBox="0 0 47.999 48">
  <g>
    <path d="M35.165,27.208,48,24,35.165,20.792a11.44,11.44,0,0,1,0,6.416Z" fill="#fddc85"/>
    <path d="M12.833,20.792,0,24l12.833,3.208a11.464,11.464,0,0,1,0-6.416Z" fill="#fddc85"/>
    <path d="M27.207,12.833,24,0,20.79,12.833a11.468,11.468,0,0,1,6.417,0Z" fill="#fddc85"/>
    <path d="M20.79,35.166,24,48l3.208-12.834a11.444,11.444,0,0,1-6.417,0Z" fill="#fddc85"/>
    <path d="M18.367,13.832,7.028,7.029l6.8,11.34A11.676,11.676,0,0,1,18.367,13.832Z" fill="#fddc85"/>
    <path d="M29.631,34.167l11.339,6.8-6.8-11.338A11.684,11.684,0,0,1,29.631,34.167Z" fill="#fddc85"/>
    <path d="M34.166,18.369l6.8-11.34-11.339,6.8A11.689,11.689,0,0,1,34.166,18.369Z" fill="#fddc85"/>
    <path d="M13.832,29.632,7.028,40.97l11.339-6.8A11.671,11.671,0,0,1,13.832,29.632Z" fill="#fddc85"/>
    <circle cx="23.999" cy="24" r="9.375" fill="#ffbd66"/>
  </g>
</svg>
